<?xml version="1.0" encoding="utf-8"?>
<svg height="64" viewBox="0 0 100 100" width="64" xmlns="http://www.w3.org/2000/svg">
<path d="M50 5 L20 20 V45 C20 70 50 95 50 95 C50 95 80 70 80 45 V20 L50 5 Z" fill="none" stroke="#000" stroke-width="3"/>
<g transform="translate(22,15) scale(0.18)"><path d="M 187,22 L 186,23 L 182,23 L 181,24 L 178,24 L 177,25 L 175,25 L 174,26 L 173,26 L 172,27 L 171,27 L 170,28 L 168,28 L 167,29 L 166,29 L 165,30 L 164,30 L 163,31 L 162,31 L 160,33 L 159,33 L 158,34 L 157,34 L 155,36 L 154,36 L 153,37 L 152,37 L 151,38 L 150,38 L 147,41 L 146,41 L 143,44 L 142,44 L 139,47 L 138,47 L 121,64 L 121,65 L 118,68 L 118,69 L 116,71 L 116,72 L 114,74 L 114,75 L 112,77 L 112,78 L 111,79 L 111,80 L 110,81 L 110,84 L 109,85 L 109,88 L 108,89 L 108,101 L 107,102 L 106,101 L 106,100 L 105,99 L 105,98 L 104,97 L 104,95 L 103,94 L 103,92 L 101,92 L 99,94 L 99,95 L 97,97 L 97,98 L 96,99 L 96,100 L 94,102 L 94,103 L 93,104 L 93,105 L 92,106 L 92,107 L 91,108 L 91,109 L 90,110 L 90,112 L 89,113 L 89,114 L 88,115 L 88,116 L 87,117 L 87,119 L 86,120 L 86,122 L 85,123 L 85,128 L 84,129 L 84,133 L 83,134 L 83,138 L 82,139 L 82,145 L 81,146 L 81,168 L 82,169 L 82,175 L 83,176 L 83,180 L 84,181 L 84,184 L 85,185 L 85,188 L 86,189 L 86,191 L 87,192 L 87,194 L 88,195 L 88,198 L 87,199 L 87,203 L 86,204 L 86,208 L 85,209 L 85,218 L 84,219 L 84,227 L 83,228 L 83,235 L 83,232 L 84,231 L 84,228 L 85,227 L 85,224 L 86,223 L 86,220 L 87,219 L 87,216 L 88,215 L 88,211 L 89,210 L 89,207 L 90,206 L 90,204 L 91,203 L 91,200 L 92,199 L 92,196 L 93,195 L 93,192 L 94,191 L 94,187 L 95,186 L 95,183 L 96,182 L 96,181 L 97,180 L 97,178 L 98,177 L 98,175 L 99,174 L 99,172 L 100,171 L 100,169 L 101,168 L 101,167 L 102,166 L 102,164 L 103,163 L 103,161 L 104,160 L 104,159 L 105,158 L 105,156 L 106,155 L 106,153 L 107,152 L 107,150 L 108,149 L 108,147 L 109,146 L 109,145 L 111,143 L 111,141 L 112,140 L 112,139 L 113,138 L 113,137 L 114,136 L 114,135 L 115,134 L 115,133 L 116,132 L 116,131 L 117,130 L 117,129 L 118,128 L 118,127 L 119,126 L 119,124 L 120,123 L 120,122 L 121,121 L 121,120 L 123,118 L 123,117 L 124,116 L 124,115 L 125,114 L 125,113 L 127,111 L 127,110 L 128,109 L 128,108 L 130,106 L 130,105 L 131,104 L 131,103 L 132,102 L 132,101 L 133,100 L 133,99 L 135,97 L 135,96 L 139,92 L 139,91 L 141,89 L 141,88 L 144,85 L 144,84 L 148,80 L 148,79 L 151,76 L 152,77 L 152,78 L 150,80 L 150,81 L 148,83 L 148,84 L 147,85 L 147,86 L 145,88 L 145,89 L 143,91 L 143,92 L 142,93 L 142,94 L 140,96 L 140,97 L 139,98 L 139,99 L 137,101 L 137,102 L 136,103 L 136,104 L 135,105 L 135,106 L 134,107 L 134,109 L 132,111 L 132,112 L 131,113 L 131,114 L 130,115 L 130,116 L 129,117 L 129,118 L 128,119 L 128,120 L 127,121 L 127,122 L 126,123 L 126,124 L 125,125 L 125,126 L 124,127 L 124,128 L 123,129 L 123,131 L 122,132 L 122,134 L 121,135 L 121,136 L 120,137 L 120,138 L 119,139 L 119,140 L 118,141 L 118,142 L 117,143 L 117,145 L 116,146 L 116,147 L 115,148 L 115,150 L 114,151 L 114,152 L 113,153 L 113,155 L 112,156 L 112,157 L 111,158 L 111,160 L 110,161 L 110,164 L 109,165 L 109,167 L 108,168 L 108,170 L 107,171 L 107,173 L 106,174 L 106,176 L 105,177 L 105,179 L 104,180 L 104,182 L 103,183 L 103,185 L 102,186 L 102,188 L 101,189 L 101,192 L 100,193 L 100,196 L 99,197 L 99,200 L 98,201 L 98,205 L 97,206 L 97,211 L 96,212 L 96,215 L 95,216 L 95,219 L 94,220 L 94,224 L 93,225 L 93,228 L 92,229 L 92,232 L 91,233 L 91,236 L 90,237 L 90,238 L 98,238 L 99,237 L 99,232 L 100,231 L 100,228 L 101,227 L 101,223 L 102,222 L 102,219 L 103,218 L 103,215 L 104,214 L 104,211 L 105,210 L 105,207 L 107,205 L 108,205 L 109,204 L 111,204 L 112,203 L 113,203 L 114,202 L 116,202 L 117,201 L 118,201 L 119,200 L 120,200 L 121,199 L 122,199 L 123,198 L 124,198 L 126,196 L 127,196 L 128,195 L 129,195 L 130,194 L 131,194 L 133,192 L 134,192 L 138,188 L 139,188 L 151,176 L 151,175 L 154,172 L 154,171 L 156,169 L 156,168 L 158,166 L 158,165 L 159,164 L 159,162 L 155,162 L 154,163 L 149,163 L 148,162 L 152,158 L 153,158 L 157,154 L 157,153 L 162,148 L 162,147 L 165,144 L 165,143 L 168,140 L 168,139 L 169,138 L 169,136 L 171,134 L 171,133 L 172,132 L 172,131 L 174,129 L 174,128 L 175,127 L 175,125 L 176,124 L 176,123 L 177,122 L 177,121 L 178,120 L 178,118 L 179,117 L 179,115 L 180,114 L 180,112 L 181,111 L 181,108 L 182,107 L 182,104 L 181,103 L 180,103 L 179,104 L 178,104 L 177,105 L 175,105 L 174,106 L 172,106 L 171,105 L 173,103 L 174,103 L 179,98 L 179,97 L 182,94 L 182,93 L 183,92 L 183,91 L 185,89 L 185,88 L 186,87 L 186,86 L 187,85 L 187,84 L 188,83 L 188,82 L 189,81 L 189,79 L 190,78 L 190,76 L 191,75 L 191,73 L 192,72 L 192,69 L 193,68 L 193,65 L 194,64 L 194,56 L 195,55 L 195,45 L 196,44 L 196,27 L 195,26 L 195,23 L 194,22 Z" fill="#000"/></g>
</svg>