<?xml version="1.0" standalone="no"?>
<!DOCTYPE svg PUBLIC "-//W3C//DTD SVG 20010904//EN"
 "http://www.w3.org/TR/2001/REC-SVG-20010904/DTD/svg10.dtd">
<svg width="64" height="64" width="64" height="64" version="1.0" xmlns="http://www.w3.org/2000/svg"
 viewBox="0 0 1024.000000 1024.000000"
 preserveAspectRatio="xMidYMid meet">

<g transform="translate(0.000000,1024.000000) scale(0.100000,-0.100000)"
fill="#000000" stroke="none">
<path d="M4979 9144 c-709 -420 -1430 -710 -2196 -883 -310 -70 -703 -134
-956 -157 -85 -7 -132 -30 -154 -74 -20 -39 -18 -2759 2 -2960 93 -965 497
-1757 1303 -2557 539 -535 1140 -997 1925 -1480 229 -140 203 -142 474 24 534
326 1027 686 1473 1072 174 150 544 513 679 666 610 689 901 1301 1028 2165
15 103 17 270 20 1588 l4 1473 -34 34 c-40 40 -30 38 -268 64 -1023 116 -2052
459 -2950 984 -208 122 -213 122 -350 41z m281 -374 c243 -145 579 -309 885
-432 659 -265 1366 -450 2018 -529 l97 -11 0 -1269 c0 -787 -4 -1316 -10
-1396 -46 -567 -231 -1114 -532 -1570 -353 -536 -842 -1035 -1528 -1560 -309
-236 -1027 -717 -1070 -717 -30 0 -588 367 -870 572 -779 568 -1337 1120
-1726 1708 -300 454 -487 1006 -534 1577 -6 80 -10 599 -10 1391 l0 1264 57 6
c1007 115 2107 476 2934 961 79 46 146 85 149 85 3 0 66 -36 140 -80z"/>
<path d="M6270 7613 c-237 -42 -575 -186 -825 -351 -190 -125 -299 -214 -466
-381 -183 -183 -295 -328 -378 -492 -71 -138 -90 -219 -100 -401 l-6 -133 -33
55 c-27 46 -50 99 -77 177 -8 24 -33 1 -89 -85 -117 -177 -229 -435 -287 -659
-53 -209 -70 -338 -76 -581 -6 -239 4 -379 39 -542 20 -94 92 -314 110 -337 6
-8 0 -57 -16 -140 -36 -178 -62 -348 -86 -552 -21 -177 -21 -229 0 -124 6 32
32 148 56 258 192 855 390 1433 713 2073 264 523 522 897 860 1245 117 120
159 150 78 55 -24 -29 -86 -109 -136 -178 -517 -700 -993 -1762 -1231 -2745
-92 -379 -221 -976 -218 -1008 3 -30 5 -32 40 -31 44 1 100 40 124 85 8 17 33
125 55 242 22 116 58 288 81 382 22 93 43 179 45 191 4 16 24 27 91 49 335
109 643 318 872 593 108 129 203 269 196 288 -3 8 -9 13 -14 10 -9 -6 -274
-37 -279 -33 -1 2 17 18 40 35 69 53 234 221 307 312 131 165 242 355 325 557
55 137 128 384 116 396 -5 5 -42 -2 -85 -17 -107 -36 -256 -73 -243 -60 2 2
30 21 63 42 279 180 464 536 538 1038 42 282 46 692 8 744 -19 25 -57 33 -112
23z"/>
</g>
</svg>
